<svg width="80" height="80" viewBox="0 0 80 80" fill="none" xmlns="http://www.w3.org/2000/svg">
<circle cx="40" cy="40" r="40" fill="#EF6C57"/>
<path d="M35 24C35.5523 24 36 24.4477 36 25V35.5537L44.2939 27.292C44.6844 26.9016 45.3175 26.9016 45.708 27.292L52.7783 34.3643C52.9662 34.5518 53.0723 34.8067 53.0723 35.0723C53.0722 35.3378 52.9663 35.5927 52.7783 35.7803L44.5225 44H55C55.5523 44 56 44.4477 56 45V55C56 55.5523 55.5523 56 55 56H30C28.4084 56.0019 26.8815 55.3694 25.7578 54.2422C24.652 53.1401 24.0213 51.649 24 50.0879V25C24 24.4477 24.4477 24 25 24H35ZM34.4863 54H54V46H42.5156L34.4863 54ZM30 47C28.3431 47 27 48.3431 27 50C27 51.6569 28.3431 53 30 53C31.6569 53 33 51.6569 33 50C33 48.3431 31.6569 47 30 47ZM36 38.376V49.668L50.6562 35.0684L44.998 29.4121L36 38.376Z" fill="white"/>
</svg>
